<svg width="20" height="20" viewBox="0 0 20 20" fill="none" xmlns="http://www.w3.org/2000/svg">
<path d="M9.53296 5.02528H10.0029V9.71278H9.53296V5.02528ZM6.01733 5.02528H6.48733V9.71278H6.01733V5.02528ZM13.0486 5.02528H13.5186V9.71278H13.0486V5.02528Z" fill="#0DB14B"/>
<path d="M7.17258 4.66357C7.17258 5.17168 6.76068 5.58359 6.25254 5.58359C5.74443 5.58359 5.33252 5.17168 5.33252 4.66357C5.33252 4.15543 6.25254 2.94347 6.25254 2.94347C6.25254 2.94347 7.17258 4.15543 7.17258 4.66357ZM14.2038 4.66357C14.2038 5.17168 13.7919 5.58359 13.2838 5.58359C12.7757 5.58359 12.3637 5.17168 12.3637 4.66357C12.3637 4.15543 13.2838 2.94347 13.2838 2.94347C13.2838 2.94347 14.2038 4.15543 14.2038 4.66357ZM10.6882 4.66357C10.6882 5.17168 10.2763 5.58359 9.76818 5.58359C9.26004 5.58359 8.84812 5.17168 8.84812 4.66357C8.84812 4.15543 9.76818 2.94347 9.76818 2.94347C9.76818 2.94347 10.6882 4.15543 10.6882 4.66357Z" fill="#FCB814"/>
<path d="M17.1875 16.4315V12.8615C17.1875 10.7773 15.8933 9.08781 14.2969 9.08781H5.70312C4.1067 9.08781 2.8125 10.7773 2.8125 12.8615V16.4315L17.1875 16.4315Z" fill="#FF3B30"/>
<path d="M3.77872 13.1275C3.61767 13.1275 3.48706 12.9969 3.48706 12.8358C3.48706 11.1189 4.58763 9.72208 5.94044 9.72208C6.10151 9.72208 6.2321 9.85268 6.2321 10.0137C6.2321 10.1748 6.10151 10.3054 5.94044 10.3054C4.90937 10.3054 4.07038 11.4406 4.07038 12.8358C4.0704 12.9969 3.93978 13.1275 3.77872 13.1275Z" fill="#EEEEEE"/>
<path d="M14.2969 9.08781H12.8906C14.4871 9.08781 15.7812 10.7773 15.7812 12.8615V14.465L2.8125 15.3378L17.1875 16.4315V12.8615C17.1875 10.7773 15.8933 9.08781 14.2969 9.08781Z" fill="black"/>
<path d="M1.25 15.3378H18.75V17.0565H1.25V15.3378Z" fill="#152B3C"/>
<path d="M17.3438 15.3378H18.75V17.0565H17.3438V15.3378Z" fill="black"/>
</svg>
