<svg width="20" height="20" viewBox="0 0 20 20" fill="none" xmlns="http://www.w3.org/2000/svg">
<path d="M13.2602 2.86502H6.82251V7.69362H13.2602V2.86502Z" fill="#FED159"/>
<path d="M19.6758 5.58459H0.407227V17.1435H19.6758V5.58459Z" fill="#82DCC7"/>
<path d="M5.46699 15.0067C7.40616 15.0067 8.97817 13.4347 8.97817 11.4955C8.97817 9.55632 7.40616 7.98431 5.46699 7.98431C3.52782 7.98431 1.95581 9.55632 1.95581 11.4955C1.95581 13.4347 3.52782 15.0067 5.46699 15.0067Z" fill="white"/>
<path d="M5.46701 12.2482C6.17664 12.2482 6.7519 11.673 6.7519 10.9634C6.7519 10.2537 6.17664 9.67847 5.46701 9.67847C4.75739 9.67847 4.18213 10.2537 4.18213 10.9634C4.18213 11.673 4.75739 12.2482 5.46701 12.2482Z" fill="#FCD589"/>
<path d="M7.28963 14.0711V14.4969C6.75849 14.8202 6.13419 15.0065 5.46697 15.0065C4.79974 15.0065 4.17591 14.8202 3.64478 14.4974V14.0711C3.64478 13.0639 4.46028 12.2484 5.46697 12.2484C6.47365 12.2484 7.28963 13.0639 7.28963 14.0711Z" fill="#F64B4A"/>
<path d="M19.6342 5.21458H7.14689V3.22661H12.8531V4.39712C12.8531 4.59915 13.0168 4.76294 13.2189 4.76294C13.421 4.76294 13.5847 4.59915 13.5847 4.39712V2.86079C13.5847 2.65875 13.421 2.49496 13.2189 2.49496H6.78107C6.579 2.49496 6.41525 2.65875 6.41525 2.86079V5.21458H0.365821C0.16375 5.21458 0 5.37837 0 5.5804V17.1392C0 17.3412 0.16375 17.505 0.365821 17.505H2.80973C3.0118 17.505 3.17555 17.3412 3.17555 17.1392C3.17555 16.9372 3.0118 16.7734 2.80973 16.7734H0.731603V5.94618H19.2684V16.7734H4.19966C3.99759 16.7734 3.83384 16.9372 3.83384 17.1392C3.83384 17.3412 3.99759 17.505 4.19966 17.505H19.6342C19.8363 17.505 20 17.3412 20 17.1392V5.58036C20 5.37837 19.8363 5.21458 19.6342 5.21458Z" fill="black"/>
<path d="M5.42546 8.34564C6.07479 8.34564 6.69796 8.54177 7.22765 8.91275C7.39327 9.02869 7.6212 8.98841 7.73714 8.82302C7.85304 8.65751 7.81284 8.42947 7.64734 8.31353C6.99401 7.85595 6.22573 7.61407 5.42538 7.61407C3.28756 7.61407 1.54834 9.3533 1.54834 11.4911C1.54834 12.8562 2.24545 14.0953 3.41315 14.8057C4.01842 15.1736 4.71424 15.3682 5.42538 15.3682C6.13722 15.3682 6.83327 15.1735 7.43823 14.8051C8.60554 14.0949 9.30246 12.8561 9.30246 11.4911C9.30246 10.7142 9.07343 9.96451 8.64011 9.32318C8.52699 9.1558 8.2996 9.11181 8.13218 9.22486C7.9648 9.33798 7.92081 9.56537 8.03386 9.73275C8.38519 10.2527 8.57085 10.8607 8.57085 11.4912C8.57085 12.3703 8.21417 13.1847 7.59331 13.7716C7.50155 13.0942 7.09898 12.5145 6.53405 12.1811C6.86683 11.8789 7.07612 11.443 7.07612 10.9592C7.07612 10.049 6.33558 9.30849 5.42542 9.30849C4.51526 9.30849 3.77471 10.049 3.77471 10.9592C3.77471 11.4431 3.98405 11.879 4.31682 12.1812C3.75186 12.5147 3.34928 13.0945 3.2576 13.7719C2.63666 13.1849 2.27994 12.3704 2.27994 11.4913C2.28002 9.7567 3.69112 8.34564 5.42546 8.34564ZM5.42546 10.04C5.93226 10.04 6.34456 10.4522 6.34456 10.9591C6.34456 11.4659 5.93229 11.8782 5.42546 11.8782C4.91862 11.8782 4.50635 11.4658 4.50635 10.9591C4.50635 10.4523 4.9187 10.04 5.42546 10.04ZM5.42554 12.6099C6.22874 12.6099 6.88218 13.2633 6.88218 14.0666V14.2792C6.4348 14.5134 5.9353 14.6365 5.42546 14.6365C4.916 14.6365 4.41651 14.5134 3.96889 14.2794V14.0666C3.96885 13.2634 4.62233 12.6099 5.42554 12.6099Z" fill="black"/>
<path d="M17.4412 8.34572C17.6432 8.34572 17.807 8.18193 17.807 7.9799C17.807 7.77786 17.6432 7.61407 17.4412 7.61407H15.9049C15.7028 7.61407 15.5391 7.77786 15.5391 7.9799C15.5391 8.18193 15.7028 8.34572 15.9049 8.34572H17.4412Z" fill="black"/>
<path d="M11.8812 8.34572H14.6855C14.8876 8.34572 15.0513 8.18193 15.0513 7.9799C15.0513 7.77786 14.8876 7.61407 14.6855 7.61407H11.8812C11.6791 7.61407 11.5154 7.77786 11.5154 7.9799C11.5154 8.18193 11.6791 8.34572 11.8812 8.34572Z" fill="black"/>
<path d="M17.4411 10.908H14.1979C13.9958 10.908 13.832 11.0718 13.832 11.2738C13.832 11.4759 13.9958 11.6397 14.1979 11.6397H17.4411C17.6432 11.6397 17.8069 11.4759 17.8069 11.2738C17.8069 11.0718 17.6431 10.908 17.4411 10.908Z" fill="black"/>
<path d="M11.8812 11.6396H12.9785C13.1806 11.6396 13.3443 11.4758 13.3443 11.2738C13.3443 11.0717 13.1806 10.908 12.9785 10.908H11.8812C11.6791 10.908 11.5154 11.0717 11.5154 11.2738C11.5154 11.4758 11.6791 11.6396 11.8812 11.6396Z" fill="black"/>
<path d="M11.8812 15.3681H17.4411C17.6432 15.3681 17.807 15.2043 17.807 15.0022C17.807 14.8002 17.6432 14.6364 17.4411 14.6364H11.8812C11.6791 14.6364 11.5154 14.8002 11.5154 15.0022C11.5154 15.2043 11.6791 15.3681 11.8812 15.3681Z" fill="black"/>
<path d="M11.8812 9.99263H17.4411C17.6432 9.99263 17.807 9.82884 17.807 9.62681C17.807 9.42478 17.6432 9.26099 17.4411 9.26099H11.8812C11.6791 9.26099 11.5154 9.42478 11.5154 9.62681C11.5154 9.82884 11.6791 9.99263 11.8812 9.99263Z" fill="black"/>
</svg>
