<svg width="20" height="20" viewBox="0 0 20 20" fill="none" xmlns="http://www.w3.org/2000/svg">
<path d="M10 1.25C12.3206 1.25 14.5462 2.17187 16.1872 3.81282C17.8281 5.45376 18.75 7.67936 18.75 10C18.75 12.3206 17.8281 14.5462 16.1872 16.1872C14.5462 17.8281 12.3206 18.75 10 18.75C7.67936 18.75 5.45376 17.8281 3.81282 16.1872C2.17187 14.5462 1.25 12.3206 1.25 10C1.25 7.67936 2.17187 5.45376 3.81282 3.81282C5.45376 2.17187 7.67936 1.25 10 1.25ZM5.625 10C5.625 10.1989 5.70402 10.3897 5.84467 10.5303C5.98532 10.671 6.17609 10.75 6.375 10.75H13.625C13.8239 10.75 14.0147 10.671 14.1553 10.5303C14.296 10.3897 14.375 10.1989 14.375 10C14.375 9.80109 14.296 9.61032 14.1553 9.46967C14.0147 9.32902 13.8239 9.25 13.625 9.25H6.375C6.27651 9.25 6.17898 9.2694 6.08799 9.30709C5.99699 9.34478 5.91431 9.40003 5.84467 9.46967C5.77503 9.53931 5.71978 9.62199 5.68209 9.71299C5.6444 9.80398 5.625 9.90151 5.625 10Z" fill="black"/>
</svg>
