<svg width="20" height="20" viewBox="0 0 20 20" fill="none" xmlns="http://www.w3.org/2000/svg">
<path d="M7.55852 1.2539C7.05852 1.30469 6.62102 1.40234 6.07414 1.58203C3.42571 2.44531 1.53508 4.80859 1.24992 7.61328C1.19524 8.16406 1.19914 8.56641 1.26946 9.14062C1.51946 11.2617 2.64446 13.082 4.4218 14.2461C6.98039 15.9258 10.4023 15.7617 12.7734 13.8477L13.0976 13.5859L15.6796 16.168C18.0585 18.543 18.2734 18.75 18.3905 18.75C18.5702 18.75 18.7499 18.5703 18.7499 18.3906C18.7499 18.2734 18.5429 18.0586 16.1679 15.6797L13.5859 13.0977L13.8476 12.7734C14.6445 11.7891 15.1445 10.6289 15.3359 9.32812C15.4257 8.70703 15.3984 7.49219 15.2773 6.91406C14.7773 4.51562 13.1601 2.58984 10.9023 1.69922C9.91008 1.30469 8.65227 1.14062 7.55852 1.2539ZM9.61711 2.0664C10.4843 2.2539 11.3398 2.6289 12.0312 3.11719C12.5077 3.45312 13.1874 4.13281 13.5234 4.60937C14.8905 6.54297 15.0898 9.04297 14.039 11.1484C12.4609 14.3047 8.65227 15.582 5.49992 14.0039C3.69133 13.1016 2.40617 11.3633 2.06633 9.36328C1.95696 8.73047 1.97649 7.61328 2.10539 7.01953C2.64446 4.50781 4.59758 2.5625 7.07414 2.07422C7.6718 1.95703 7.65227 1.96094 8.47649 1.97265C9.06633 1.98437 9.32414 2.0039 9.61711 2.0664Z" fill="black"/>
</svg>
