<svg width="58" height="58" viewBox="0 0 58 58" fill="none" xmlns="http://www.w3.org/2000/svg">
<g clip-path="url(#clip0_200_2861)">
<path d="M29 4.83325C15.7084 4.83325 4.83337 15.7083 4.83337 28.9999C4.83337 42.2916 15.7084 53.1666 29 53.1666C42.2917 53.1666 53.1667 42.2916 53.1667 28.9999C53.1667 15.7083 42.2917 4.83325 29 4.83325ZM29 48.3333C18.125 48.3333 9.66671 39.8749 9.66671 28.9999C9.66671 18.1249 18.125 9.66659 29 9.66659C39.875 9.66659 48.3334 18.1249 48.3334 28.9999C48.3334 39.8749 39.875 48.3333 29 48.3333Z" fill="white"/>
<path d="M23.6834 40.5999L14.7417 31.8999L18.125 28.2749L23.6834 33.8332L37.4584 19.0916L41.0834 22.4749L23.6834 40.5999Z" fill="white"/>
</g>
<defs>
<clipPath id="clip0_200_2861">
<rect width="58" height="58" fill="white"/>
</clipPath>
</defs>
</svg>
